<?xml version="1.0" encoding="UTF-8"?>
<svg xmlns="http://www.w3.org/2000/svg" xmlns:xlink="http://www.w3.org/1999/xlink" viewBox="0 0 96 96" width="96px" height="96px">
<g id="surface195323066">
<path style=" stroke:none;fill-rule:nonzero;fill:rgb(83.529413%,61.176473%,28.627452%);fill-opacity:1;" d="M 69.617188 65.421875 C 71.648438 66.035156 73.523438 67.089844 75.097656 68.507812 C 75.363281 68.679688 75.535156 68.964844 75.558594 69.28125 C 75.558594 69.75 75.207031 70.210938 74.484375 70.652344 C 73.191406 71.519531 71.941406 72.453125 70.738281 73.449219 C 69.554688 74.414062 68.316406 75.308594 67.023438 76.121094 C 66.859375 76.210938 66.671875 76.257812 66.484375 76.261719 C 66.21875 76.265625 65.964844 76.164062 65.773438 75.980469 C 65.402344 75.660156 65.367188 75.105469 65.6875 74.738281 C 65.695312 74.726562 65.703125 74.71875 65.710938 74.710938 C 66.117188 74.191406 66.640625 73.777344 67.242188 73.507812 C 67.953125 73.121094 68.621094 72.664062 69.246094 72.15625 C 70.25 71.394531 70.851562 70.882812 71.253906 70.652344 C 72.042969 70.253906 72.453125 69.972656 72.453125 69.800781 C 72.460938 69.765625 72.460938 69.726562 72.453125 69.691406 C 71.960938 68.878906 71.195312 68.269531 70.289062 67.96875 C 69.398438 67.71875 68.484375 67.449219 67.574219 67.164062 C 66.664062 66.9375 65.839844 66.457031 65.191406 65.773438 C 65.171875 65.710938 65.171875 65.644531 65.191406 65.582031 C 65.222656 65.300781 65.363281 65.039062 65.582031 64.851562 C 65.761719 64.628906 66.027344 64.488281 66.3125 64.460938 C 66.460938 64.441406 66.609375 64.441406 66.753906 64.460938 C 67.289062 64.492188 67.816406 64.621094 68.304688 64.84375 L 69.757812 65.472656 M 26.929688 64.558594 C 27.292969 64.554688 27.644531 64.671875 27.933594 64.890625 C 28.171875 65.074219 28.316406 65.359375 28.320312 65.660156 C 28.324219 65.878906 28.234375 66.082031 28.082031 66.234375 C 27.003906 67.1875 25.734375 67.90625 24.367188 68.347656 C 22.984375 68.789062 21.765625 69.625 20.859375 70.753906 C 22.152344 71.503906 23.492188 72.171875 24.867188 72.757812 L 29.015625 74.578125 C 29.339844 74.707031 29.542969 75.027344 29.527344 75.371094 C 29.585938 75.84375 29.382812 76.308594 28.996094 76.582031 C 28.617188 76.898438 28.136719 77.066406 27.644531 77.0625 C 27.445312 77.0625 27.246094 77.023438 27.0625 76.945312 C 26.78125 76.667969 26.476562 76.414062 26.160156 76.183594 C 23.757812 74.847656 21.183594 73.597656 18.445312 72.4375 C 18.175781 72.324219 17.894531 72.214844 17.625 72.125 C 17.320312 72.003906 17.097656 71.742188 17.023438 71.425781 C 17.035156 70.582031 17.398438 69.789062 18.023438 69.230469 C 19.3125 68.292969 20.707031 67.511719 22.183594 66.90625 C 23.667969 66.3125 25.070312 65.523438 26.351562 64.5625 L 26.929688 64.5625 Z M 26.929688 64.558594 "/>
<path style=" stroke:none;fill-rule:nonzero;fill:rgb(83.529413%,61.176473%,28.627452%);fill-opacity:1;" d="M 44.101562 64.480469 C 43.761719 63.949219 43.332031 63.480469 42.839844 63.089844 C 42.445312 62.8125 41.96875 62.667969 41.488281 62.679688 C 41.324219 62.675781 41.164062 62.703125 41.019531 62.769531 L 38.011719 63.769531 C 37.820312 63.828125 37.621094 63.855469 37.421875 63.851562 C 37.0625 63.875 36.710938 63.777344 36.417969 63.570312 C 36.054688 63.253906 35.746094 62.878906 35.507812 62.457031 L 34.675781 63.019531 C 35.027344 63.609375 35.480469 64.132812 36.015625 64.5625 C 36.4375 64.824219 36.929688 64.957031 37.429688 64.933594 C 37.683594 64.929688 37.9375 64.890625 38.179688 64.820312 L 40.957031 63.820312 C 41.144531 63.746094 41.34375 63.710938 41.546875 63.710938 C 41.851562 63.691406 42.15625 63.773438 42.410156 63.941406 C 42.761719 64.226562 43.0625 64.5625 43.3125 64.941406 L 44.105469 64.503906 "/>
<path style=" stroke:none;fill-rule:evenodd;fill:rgb(83.529413%,61.176473%,28.627452%);fill-opacity:1;" d="M 64.578125 81.21875 C 66.101562 90.335938 54.960938 91.238281 50.382812 87.121094 C 47.214844 84.292969 48.109375 80.359375 52.644531 80.609375 C 56.652344 80.820312 58.988281 85.96875 64.578125 81.21875 "/>
<path style=" stroke:none;fill-rule:evenodd;fill:rgb(83.529413%,61.176473%,28.627452%);fill-opacity:1;" d="M 30.726562 81.21875 C 29.207031 90.335938 40.347656 91.238281 44.925781 87.121094 C 48.089844 84.292969 47.199219 80.359375 42.660156 80.609375 C 38.652344 80.820312 36.316406 85.96875 30.726562 81.21875 "/>
<path style=" stroke:none;fill-rule:nonzero;fill:rgb(83.529413%,61.176473%,28.627452%);fill-opacity:1;" d="M 41.679688 67.996094 C 41.121094 67.628906 40.460938 67.445312 39.792969 67.464844 C 38.984375 67.4375 38.199219 67.722656 37.601562 68.269531 C 36.925781 68.933594 36.636719 69.894531 36.839844 70.820312 C 36.9375 71.695312 37.285156 72.519531 37.839844 73.195312 C 38.3125 73.828125 39.054688 74.199219 39.84375 74.199219 C 40.359375 74.191406 40.867188 74.050781 41.316406 73.796875 C 42.21875 73.257812 42.65625 72.234375 42.65625 70.703125 C 42.773438 69.695312 42.410156 68.695312 41.679688 67.996094 Z M 39.753906 71.621094 C 39.199219 71.621094 38.753906 71.175781 38.753906 70.621094 C 38.753906 70.066406 39.199219 69.617188 39.753906 69.617188 C 40.308594 69.617188 40.757812 70.066406 40.757812 70.621094 C 40.757812 71.175781 40.308594 71.621094 39.753906 71.621094 Z M 39.753906 71.621094 "/>
<path style=" stroke:none;fill-rule:nonzero;fill:rgb(83.529413%,61.176473%,28.627452%);fill-opacity:1;" d="M 48.390625 79.828125 C 48.667969 79.828125 48.941406 79.777344 49.203125 79.679688 C 49.449219 79.582031 49.6875 79.453125 49.902344 79.296875 C 50.109375 79.132812 50.300781 78.953125 50.476562 78.757812 C 50.640625 78.570312 50.789062 78.371094 50.914062 78.15625 C 51.039062 77.96875 51.144531 77.769531 51.234375 77.5625 C 51.304688 77.414062 51.363281 77.261719 51.40625 77.105469 L 51.40625 77.015625 C 51.386719 76.984375 51.367188 76.957031 51.355469 76.925781 C 51.097656 77.324219 50.769531 77.679688 50.394531 77.976562 C 50.105469 78.246094 49.765625 78.457031 49.390625 78.589844 C 49.015625 78.71875 48.617188 78.78125 48.21875 78.777344 C 47.878906 78.785156 47.542969 78.734375 47.21875 78.636719 C 46.941406 78.550781 46.679688 78.414062 46.445312 78.238281 C 46.210938 78.050781 46 77.832031 45.8125 77.597656 C 45.621094 77.335938 45.453125 77.058594 45.3125 76.765625 C 45.292969 76.785156 45.273438 76.8125 45.265625 76.84375 C 45.265625 76.84375 45.265625 76.902344 45.265625 76.925781 C 45.398438 77.308594 45.574219 77.675781 45.785156 78.027344 C 45.972656 78.363281 46.207031 78.671875 46.484375 78.9375 C 46.734375 79.199219 47.027344 79.410156 47.347656 79.570312 C 47.664062 79.703125 48.007812 79.777344 48.351562 79.789062 "/>
<path style=" stroke:none;fill-rule:nonzero;fill:rgb(83.529413%,61.176473%,28.627452%);fill-opacity:1;" d="M 57.226562 67.9375 C 56.671875 67.566406 56.011719 67.375 55.34375 67.394531 C 54.53125 67.367188 53.742188 67.660156 53.148438 68.207031 C 52.476562 68.875 52.191406 69.839844 52.394531 70.761719 C 52.488281 71.632812 52.835938 72.460938 53.398438 73.136719 C 53.871094 73.765625 54.613281 74.136719 55.402344 74.136719 C 55.917969 74.128906 56.425781 73.992188 56.875 73.738281 C 57.859375 73.035156 58.378906 71.84375 58.226562 70.640625 C 58.179688 69.289062 57.855469 68.375 57.226562 67.9375 Z M 55.023438 71.734375 C 54.46875 71.734375 54.019531 71.285156 54.019531 70.730469 C 54.019531 70.179688 54.46875 69.730469 55.023438 69.730469 C 55.574219 69.730469 56.023438 70.179688 56.023438 70.730469 C 56.023438 71.285156 55.574219 71.734375 55.023438 71.734375 Z M 55.023438 71.734375 "/>
<path style=" stroke:none;fill-rule:nonzero;fill:rgb(81.176472%,84.705883%,86.274511%);fill-opacity:1;" d="M 77.039062 19.902344 C 76.8125 19.550781 76.589844 19.195312 76.359375 18.867188 C 76.175781 18.601562 75.988281 18.363281 75.800781 18.113281 C 75.527344 17.742188 75.253906 17.378906 74.972656 17.039062 C 74.808594 16.835938 74.640625 16.644531 74.472656 16.453125 C 74.160156 16.097656 73.855469 15.75 73.542969 15.425781 C 73.398438 15.28125 73.261719 15.140625 73.117188 15 C 72.757812 14.640625 72.390625 14.300781 72.027344 13.980469 C 71.941406 13.90625 71.855469 13.828125 71.769531 13.757812 C 67.207031 9.867188 62.585938 8.878906 59.617188 8.226562 L 57.976562 7.859375 C 51.964844 6.707031 46.914062 6.125 41.796875 6.855469 C 39.78125 7.292969 37.832031 8.003906 36.007812 8.960938 C 33.492188 10.101562 30.875 11.285156 28.351562 11.464844 C 25.710938 12.144531 23.414062 13.789062 21.921875 16.070312 L 21.640625 16.472656 C 20.296875 19.277344 19.945312 22.457031 20.636719 25.488281 C 21.191406 27.292969 21.871094 29.054688 22.511719 30.746094 C 23.984375 34.203125 25.050781 37.816406 25.6875 41.519531 C 26.351562 42.832031 26.871094 44.21875 27.230469 45.644531 C 28.082031 48.613281 29.054688 51.949219 31.6875 54.542969 L 31.757812 54.542969 C 31.78125 54.53125 31.800781 54.523438 31.824219 54.515625 C 31.828125 54.519531 31.832031 54.527344 31.839844 54.53125 C 34.121094 53.453125 36.320312 52.726562 38.453125 52.285156 C 38.753906 52.222656 39.050781 52.179688 39.347656 52.128906 C 39.707031 52.066406 40.066406 52.003906 40.421875 51.953125 C 41 51.878906 41.574219 51.824219 42.144531 51.792969 C 42.195312 51.789062 42.242188 51.78125 42.292969 51.78125 C 49.59375 51.378906 56.117188 54.046875 62.492188 56.644531 L 63.644531 57.121094 C 63.679688 57.105469 63.714844 57.0625 63.75 57.042969 C 63.769531 57.050781 63.789062 57.058594 63.808594 57.066406 C 65.371094 56.386719 66.160156 51.136719 67.214844 46.246094 C 71 37.582031 79.464844 31.21875 78.957031 23.207031 C 78.339844 21.992188 77.691406 20.917969 77.039062 19.902344 Z M 77.039062 19.902344 "/>
<path style=" stroke:none;fill-rule:nonzero;fill:rgb(81.176472%,84.705883%,86.274511%);fill-opacity:1;" d="M 63.65625 57.125 L 63.644531 57.121094 L 63.636719 57.125 Z M 63.65625 57.125 "/>
<path style=" stroke:none;fill-rule:nonzero;fill:rgb(93.725491%,32.549021%,31.37255%);fill-opacity:1;" d="M 62.945312 52.769531 C 62.933594 52.589844 62.859375 52.40625 62.804688 52.226562 C 62.804688 52.226562 62.800781 52.222656 62.800781 52.21875 C 62.128906 50.023438 58.53125 47.714844 53.628906 46.46875 C 53.359375 46.394531 53.082031 46.363281 52.8125 46.300781 C 52.800781 46.296875 52.789062 46.296875 52.777344 46.292969 C 51.605469 46.023438 50.425781 45.84375 49.234375 45.738281 C 49.160156 45.730469 49.089844 45.722656 49.019531 45.71875 C 48.34375 45.664062 47.667969 45.628906 46.988281 45.628906 C 46.394531 45.625 45.796875 45.636719 45.199219 45.675781 C 44.933594 45.695312 44.671875 45.71875 44.40625 45.746094 C 43.785156 45.808594 43.164062 45.890625 42.554688 46.007812 C 42.339844 46.042969 42.125 46.054688 41.910156 46.097656 C 37.875 46.839844 34.316406 49.199219 32.0625 52.628906 L 32.191406 57.929688 L 32.191406 58.007812 L 32.253906 58.007812 C 35.734375 56.015625 39.585938 54.753906 43.570312 54.300781 C 49.914062 53.730469 56.40625 55.664062 62.746094 60.09375 L 62.804688 60.09375 L 62.804688 59.992188 C 63.230469 57.605469 63.28125 55.167969 62.945312 52.769531 Z M 62.945312 52.769531 "/>
<path style=" stroke:none;fill-rule:evenodd;fill:rgb(92.54902%,93.725491%,94.509804%);fill-opacity:1;" d="M 25.949219 15.761719 C 25.269531 19.226562 28.355469 30.167969 27.351562 35.90625 C 26.832031 32.902344 24.90625 26.890625 24.988281 23.554688 C 24.066406 21.550781 23.132812 19.097656 22.113281 18.15625 C 21.089844 17.214844 24.226562 12.316406 26 15.761719 "/>
<path style=" stroke:none;fill-rule:nonzero;fill:rgb(69.01961%,74.509805%,77.254903%);fill-opacity:1;" d="M 32.953125 50.984375 C 28.945312 46.257812 27.242188 38.113281 25.839844 31.25 C 24.726562 25.800781 23.777344 21.152344 21.941406 19.691406 C 21.722656 19.394531 21.578125 19.050781 21.523438 18.6875 C 21.457031 17.992188 21.601562 17.296875 21.933594 16.683594 C 22.246094 16 22.734375 15.410156 23.34375 14.96875 C 23.730469 14.703125 24.171875 14.535156 24.636719 14.46875 L 24.636719 14.558594 C 24.175781 14.625 23.734375 14.792969 23.355469 15.058594 C 22.949219 15.566406 22.589844 16.105469 22.273438 16.671875 C 21.371094 18.476562 23.273438 18.386719 23.984375 19.367188 C 25.839844 20.859375 25.988281 25.757812 27.113281 31.226562 C 28.515625 38.078125 28.976562 46.207031 32.992188 50.914062 L 32.933594 50.984375 "/>
<path style=" stroke:none;fill-rule:evenodd;fill:rgb(92.54902%,93.725491%,94.509804%);fill-opacity:1;" d="M 32.800781 14.351562 C 32.109375 17.804688 33.875 25.761719 32.800781 31.511719 C 32.28125 28.503906 30.359375 22.492188 30.4375 19.167969 C 29.507812 17.164062 28.433594 14.839844 27.742188 13.648438 C 27.054688 12.457031 30.21875 11.132812 32.753906 14.351562 "/>
<path style=" stroke:none;fill-rule:nonzero;fill:rgb(69.01961%,74.509805%,77.254903%);fill-opacity:1;" d="M 31.460938 13.128906 C 30.902344 12.660156 30.160156 12.492188 29.457031 12.667969 C 29.179688 12.699219 28.914062 12.792969 28.683594 12.949219 C 28.480469 13.082031 28.34375 13.296875 28.304688 13.539062 C 28.304688 13.898438 28.023438 13.960938 28.304688 14.632812 C 30.546875 17.636719 32.3125 22.714844 32.730469 28.074219 C 33.332031 34.878906 32.542969 42.410156 37.050781 47.753906 L 36.980469 47.8125 C 32.453125 42.441406 31.78125 34.898438 31.191406 28.085938 C 30.710938 22.734375 30.277344 17.828125 28.054688 14.8125 C 27.675781 14.390625 27.484375 13.835938 27.523438 13.269531 C 27.566406 13.007812 27.714844 12.773438 27.933594 12.617188 C 28.179688 12.445312 28.464844 12.34375 28.765625 12.316406 C 29.722656 12.242188 30.679688 12.503906 31.460938 13.058594 L 31.398438 13.128906 "/>
<path style=" stroke:none;fill-rule:nonzero;fill:rgb(92.54902%,93.725491%,94.509804%);fill-opacity:1;" d="M 43.820312 8.257812 C 45.90625 11.734375 42.078125 27.382812 41.378906 37.210938 C 41.316406 38.042969 33.984375 4.761719 43.800781 8.257812 "/>
<path style=" stroke:none;fill-rule:nonzero;fill:rgb(69.01961%,74.509805%,77.254903%);fill-opacity:1;" d="M 42.949219 45.886719 C 40 37.707031 38.210938 29.15625 37.628906 20.480469 C 37.402344 17.609375 37.632812 14.722656 38.3125 11.925781 C 38.964844 9.699219 40.105469 8.238281 41.878906 7.976562 C 42.527344 7.890625 43.183594 7.941406 43.8125 8.117188 L 43.8125 8.207031 C 43.175781 8.089844 42.519531 8.109375 41.886719 8.265625 C 40.40625 8.605469 40.585938 9.527344 39.613281 11.621094 C 38.855469 14.3125 38.609375 17.125 38.890625 19.90625 C 40.152344 28.160156 41.707031 39.421875 43.050781 45.820312 L 42.980469 45.820312 "/>
<path style=" stroke:none;fill-rule:nonzero;fill:rgb(69.01961%,74.509805%,77.254903%);fill-opacity:1;" d="M 49.863281 45.355469 C 49.761719 44.683594 49.671875 44.003906 49.570312 43.351562 C 48.03125 32.171875 46.136719 18.546875 52.769531 8.761719 L 52.847656 8.761719 C 50.132812 16.003906 49.761719 29.796875 49.441406 34.246094 C 49.300781 36.171875 49.523438 40.257812 49.671875 43.261719 C 49.761719 43.953125 49.871094 44.632812 49.960938 45.316406 L 49.863281 45.316406 "/>
<path style=" stroke:none;fill-rule:nonzero;fill:rgb(69.01961%,74.509805%,77.254903%);fill-opacity:1;" d="M 57.054688 46.789062 C 57.285156 41.019531 57.898438 34.265625 58.457031 28.414062 C 59.851562 21.039062 63.597656 17.554688 64.578125 10.101562 L 64.578125 10.011719 C 61.199219 15.664062 58.953125 21.925781 57.96875 28.4375 C 57.054688 34.507812 56.773438 40.660156 57.136719 46.789062 L 57.035156 46.789062 "/>
<path style=" stroke:none;fill-rule:nonzero;fill:rgb(69.01961%,74.509805%,77.254903%);fill-opacity:1;" d="M 74.4375 18.859375 C 71.429688 28.113281 67.882812 37.160156 64.277344 46.316406 C 64.378906 34.195312 70.871094 19.609375 74.4375 18.859375 "/>
<path style=" stroke:none;fill-rule:nonzero;fill:rgb(69.01961%,74.509805%,77.254903%);fill-opacity:1;" d="M 62.515625 50.394531 C 64.097656 48.753906 64.210938 46.226562 64.351562 43.292969 C 64.316406 40.289062 64.851562 37.308594 65.933594 34.507812 C 65.933594 34.386719 66.023438 34.195312 66.09375 33.933594 C 66.972656 30.878906 70.488281 18.566406 74.589844 18.785156 L 74.589844 18.875 C 71.371094 18.757812 67.273438 30.898438 66.304688 33.972656 C 66.234375 34.222656 66.214844 34.382812 66.175781 34.515625 C 65.023438 37.519531 64.953125 40.523438 64.570312 43.269531 C 64.441406 46.214844 64.191406 48.761719 62.566406 50.421875 L 62.507812 50.421875 "/>
</g>
</svg>
